<?xml version="1.0" encoding="UTF-8" standalone="no"?>
<!-- Created with Inkscape (http://www.inkscape.org/) -->

<svg
   xmlns:dc="http://purl.org/dc/elements/1.1/"
   xmlns:cc="http://creativecommons.org/ns#"
   xmlns:rdf="http://www.w3.org/1999/02/22-rdf-syntax-ns#"
   xmlns:svg="http://www.w3.org/2000/svg"
   xmlns="http://www.w3.org/2000/svg"
   xmlns:xlink="http://www.w3.org/1999/xlink"
   xmlns:sodipodi="http://sodipodi.sourceforge.net/DTD/sodipodi-0.dtd"
   xmlns:inkscape="http://www.inkscape.org/namespaces/inkscape"
   sodipodi:docname="logo.svg"
   inkscape:version="0.48.2 r9819"
   version="1.1"
   id="svg2"
   height="1052.3622047"
   width="744.09448819">
  <sodipodi:namedview
     id="base"
     pagecolor="#000000"
     bordercolor="#666666"
     borderopacity="1.0"
     inkscape:pageopacity="0"
     inkscape:pageshadow="2"
     inkscape:zoom="0.7"
     inkscape:cx="116.91546"
     inkscape:cy="654.22824"
     inkscape:document-units="px"
     inkscape:current-layer="g4170"
     showgrid="false"
     inkscape:window-width="1280"
     inkscape:window-height="778"
     inkscape:window-x="0"
     inkscape:window-y="0"
     inkscape:window-maximized="1" />
  <defs
     id="defs4">
    <linearGradient
       inkscape:collect="always"
       id="linearGradient4347">
      <stop
         style="stop-color:#060000;stop-opacity:1;"
         offset="0"
         id="stop4349" />
      <stop
         style="stop-color:#000000;stop-opacity:0.13793103"
         offset="1"
         id="stop4351" />
    </linearGradient>
    <linearGradient
       id="linearGradient4286"
       inkscape:collect="always">
      <stop
         id="stop4288"
         offset="0"
         style="stop-color:#a7a7a7;stop-opacity:1" />
      <stop
         id="stop4290"
         offset="1"
         style="stop-color:#ffffff;stop-opacity:1" />
    </linearGradient>
    <linearGradient
       inkscape:collect="always"
       id="linearGradient4220">
      <stop
         style="stop-color:#ffffff;stop-opacity:1;"
         offset="0"
         id="stop4222" />
      <stop
         style="stop-color:#e6e6e6;stop-opacity:1"
         offset="1"
         id="stop4224" />
    </linearGradient>
    <linearGradient
       inkscape:collect="always"
       id="linearGradient4212">
      <stop
         style="stop-color:#000000;stop-opacity:0.42035398"
         offset="0"
         id="stop4214" />
      <stop
         style="stop-color:#c6c6c6;stop-opacity:1"
         offset="1"
         id="stop4216" />
    </linearGradient>
    <linearGradient
       id="linearGradient4217">
      <stop
         style="stop-color:#ffffff;stop-opacity:0.49152541;"
         offset="0"
         id="stop4219" />
      <stop
         style="stop-color:#ffffff;stop-opacity:0;"
         offset="1"
         id="stop4221" />
    </linearGradient>
    <inkscape:perspective
       id="perspective2985"
       inkscape:persp3d-origin="372.04724 : 350.78739 : 1"
       inkscape:vp_z="392.83559 : 121.91104 : 0"
       inkscape:vp_y="6.1232341e-14 : 1000 : 0"
       inkscape:vp_x="-340.0272 : 231.43811 : 0"
       sodipodi:type="inkscape:persp3d" />
    <filter
       inkscape:collect="always"
       id="filter4146"
       x="-0.11048208"
       width="1.2209642"
       y="-0.22163233"
       height="1.4432647">
      <feGaussianBlur
         inkscape:collect="always"
         stdDeviation="3.8169649"
         id="feGaussianBlur4148" />
    </filter>
    <mask
       maskUnits="userSpaceOnUse"
       id="mask4150">
      <path
         inkscape:connector-curvature="0"
         id="path4152"
         d="m 375.5198,362.98706 c 0,0 -0.38366,-0.26113 -0.38366,-0.26113 0,0 -0.38365,-0.26113 -0.38365,-0.26113 0,0 -17.84016,-12.14283 -17.84016,-12.14283 0,0 -24.44667,7.58668 -24.44667,7.58668 0,0 -14.71093,-10.01294 -14.71093,-10.01294 0,0 24.44666,-7.58668 24.44666,-7.58668 0,0 -18.59548,-12.65693 -18.59548,-12.65693 0,0 19.32735,-5.99798 19.32735,-5.99798 0,0 18.59548,12.65694 18.59548,12.65694 0,0 24.4309,-7.58179 24.4309,-7.58179 0,0 14.71094,10.01294 14.71094,10.01294 0,0 -0.50405,0.15642 -0.50405,0.15642 0,0 -0.50405,0.15643 -0.50405,0.15643 0,0 -23.42281,7.26894 -23.42281,7.26894 0,0 18.60747,12.66509 18.60747,12.66509 0,0 -19.32734,5.99797 -19.32734,5.99797 0,0 0,0 0,0"
         style="fill:none;stroke:#ffffff;stroke-width:7.4000001;stroke-miterlimit:4;stroke-opacity:1;stroke-dasharray:none;display:inline;filter:url(#filter4146)" />
    </mask>
    <linearGradient
       inkscape:collect="always"
       xlink:href="#linearGradient4217"
       id="linearGradient4223"
       x1="371.96167"
       y1="298.45999"
       x2="335.35886"
       y2="424.7951"
       gradientUnits="userSpaceOnUse"
       gradientTransform="matrix(2.7198951,0,0,3.214931,-620.8433,-682.01912)" />
    <mask
       maskUnits="userSpaceOnUse"
       id="mask4277">
      <path
         style="fill:#ffffff;fill-opacity:1;stroke:none;display:inline"
         d="m 375.5198,362.98706 c 0,0 -0.38366,-0.26113 -0.38366,-0.26113 0,0 -0.38365,-0.26113 -0.38365,-0.26113 0,0 -17.84016,-12.14283 -17.84016,-12.14283 0,0 -24.44667,7.58668 -24.44667,7.58668 0,0 -14.71093,-10.01294 -14.71093,-10.01294 0,0 24.44666,-7.58668 24.44666,-7.58668 0,0 -18.59548,-12.65693 -18.59548,-12.65693 0,0 19.32735,-5.99798 19.32735,-5.99798 0,0 18.59548,12.65694 18.59548,12.65694 0,0 24.4309,-7.58179 24.4309,-7.58179 0,0 14.71094,10.01294 14.71094,10.01294 0,0 -0.50405,0.15642 -0.50405,0.15642 0,0 -0.50405,0.15643 -0.50405,0.15643 0,0 -23.42281,7.26894 -23.42281,7.26894 0,0 18.60747,12.66509 18.60747,12.66509 0,0 -19.32734,5.99797 -19.32734,5.99797 0,0 0,0 0,0"
         id="path4279"
         inkscape:connector-curvature="0" />
    </mask>
    <filter
       inkscape:collect="always"
       id="filter4044">
      <feGaussianBlur
         inkscape:collect="always"
         stdDeviation="0.31915549"
         id="feGaussianBlur4046" />
    </filter>
    <filter
       inkscape:collect="always"
       id="filter4208">
      <feGaussianBlur
         inkscape:collect="always"
         stdDeviation="0.36360795"
         id="feGaussianBlur4210" />
    </filter>
    <linearGradient
       inkscape:collect="always"
       xlink:href="#linearGradient4220"
       id="linearGradient4226"
       x1="393.19766"
       y1="280.62369"
       x2="324.5365"
       y2="537.20245"
       gradientUnits="userSpaceOnUse" />
    <mask
       maskUnits="userSpaceOnUse"
       id="mask4264">
      <path
         sodipodi:nodetypes="ccccc"
         d="M 121.53343,385.48403 324.82581,549.78246 592.16008,451.60395 388.32386,287.74157 z"
         style="fill:#ffffff;fill-opacity:1;stroke:none;display:inline"
         id="path4266"
         inkscape:connector-curvature="0" />
    </mask>
    <linearGradient
       inkscape:collect="always"
       xlink:href="#linearGradient4286"
       id="linearGradient4292"
       gradientUnits="userSpaceOnUse"
       x1="302.81619"
       y1="629.9682"
       x2="400.54813"
       y2="240.56122" />
    <mask
       maskUnits="userSpaceOnUse"
       id="mask4324">
      <path
         inkscape:connector-curvature="0"
         id="path4326"
         style="fill:#ffffff;fill-opacity:1;stroke:none;display:inline"
         d="M 137.24772,387.70634 326.96418,541.03288 576.44579,449.41076 386.22181,296.49115 z"
         sodipodi:nodetypes="ccccc" />
    </mask>
    <linearGradient
       inkscape:collect="always"
       xlink:href="#linearGradient4347"
       id="linearGradient4357"
       x1="386.63513"
       y1="298.85715"
       x2="369.53009"
       y2="418.57144"
       gradientUnits="userSpaceOnUse" />
    <filter
       inkscape:collect="always"
       id="filter4435">
      <feGaussianBlur
         inkscape:collect="always"
         stdDeviation="3.8326641"
         id="feGaussianBlur4437" />
    </filter>
    <linearGradient
       inkscape:collect="always"
       xlink:href="#linearGradient4212"
       id="linearGradient4442"
       gradientUnits="userSpaceOnUse"
       x1="151.44083"
       y1="381.87277"
       x2="163.51794"
       y2="323.59631" />
    <mask
       maskUnits="userSpaceOnUse"
       id="mask4450">
      <path
         style="fill:none;stroke:#ffffff;stroke-width:3.5704236;stroke-miterlimit:4;stroke-opacity:1;stroke-dasharray:none"
         d="m 142.6831,321.0665 c -6.84763,2.12888 -13.69577,4.25658 -20.54307,6.38622 6.19443,4.2209 12.3936,8.43683 18.58987,12.65579 -8.14964,2.52771 -16.3008,5.05191 -24.44948,7.58182 5.34662,3.64565 10.70643,7.27752 16.05072,10.92558 8.142,-2.53951 16.29266,-5.0595 24.43798,-7.59153 6.20252,4.2257 12.41911,8.44637 18.61285,12.67523 6.97375,-2.177 13.95734,-4.33174 20.93371,-6.50286 -6.19838,-4.22401 -12.40124,-8.44333 -18.60136,-12.66551 8.14659,-2.5259 16.28797,-5.06384 24.43798,-7.58181 -5.35613,-3.63562 -10.70473,-7.27932 -16.05071,-10.92559 -8.14201,2.53951 -16.29266,5.0595 -24.43798,7.59153 -6.19579,-4.22594 -12.39824,-8.44496 -18.58987,-12.67523 l -0.34342,0.11109 -0.0472,0.0153 z"
         id="path4452"
         inkscape:connector-curvature="0" />
    </mask>
    <filter
       inkscape:collect="always"
       id="filter4482">
      <feGaussianBlur
         inkscape:collect="always"
         stdDeviation="1.969658"
         id="feGaussianBlur4484" />
    </filter>
  </defs>
  <metadata
     id="metadata7">
    <rdf:RDF>
      <cc:Work
         rdf:about="">
        <dc:format>image/svg+xml</dc:format>
        <dc:type
           rdf:resource="http://purl.org/dc/dcmitype/StillImage" />
        <dc:title />
      </cc:Work>
    </rdf:RDF>
  </metadata>
  <g
     inkscape:groupmode="layer"
     id="layer3"
     inkscape:label="Box Shadow"
     style="display:inline">
    <path
       inkscape:connector-curvature="0"
       id="path4191"
       style="opacity:1;fill:#000000;fill-opacity:1;fill-rule:evenodd;stroke:none;display:inline;filter:url(#filter4482)"
       d="m 72.74128,355.96949 74.75129,50.87915 98.20889,-30.47776 -74.75128,-42.79188 z"
       transform="matrix(2.7198951,0,0,3.2149309,-78.864308,-690.01912)"
       sodipodi:nodetypes="ccccc" />
  </g>
  <g
     id="layer1"
     inkscape:groupmode="layer"
     inkscape:label="Box"
     style="display:inline">
    <path
       d="m 388.102,287.75082 203.31564,163.57294 0,72.23269 L 388.102,383.98348 z"
       style="fill:#e6e6e6;fill-opacity:1;fill-rule:evenodd;stroke:none"
       id="path3819"
       inkscape:connector-curvature="0"
       sodipodi:nodetypes="ccccc" />
    <path
       d="m 120.9841,385.73469 0,72.23269 267.1179,-73.9839 0,-96.23266 z"
       style="fill:#d4d4d4;fill-opacity:1;fill-rule:evenodd;stroke:none"
       id="path3821"
       inkscape:connector-curvature="0"
       sodipodi:nodetypes="ccccc" />
    <path
       d="M 120.9841,457.96738 324.29976,621.54034 591.41764,523.55645 388.102,383.98348 z"
       style="fill:#afafde;fill-opacity:1;fill-rule:evenodd;stroke:none"
       id="path3823"
       inkscape:connector-curvature="0"
       sodipodi:nodetypes="ccccc" />
    <path
       d="m 324.29976,549.30765 0,72.23269 267.11788,-97.98389 0,-72.23269 z"
       style="fill:#e1e1e1;fill-opacity:1;fill-rule:evenodd;stroke:#ffffff;stroke-width:1.47853601;stroke-linejoin:bevel;stroke-miterlimit:4;stroke-opacity:0.08849559;stroke-dasharray:none"
       id="path3827"
       inkscape:connector-curvature="0"
       sodipodi:nodetypes="ccccc" />
    <path
       d="m 120.9841,385.73469 203.31566,163.57296 0,72.23269 L 120.9841,457.96738 z"
       style="fill:#bfbfbf;fill-opacity:1;stroke:#ffffff;stroke-width:1.47853601;stroke-linejoin:bevel;stroke-miterlimit:4;stroke-opacity:0.08849559;stroke-dasharray:none"
       id="path3829"
       inkscape:connector-curvature="0"
       sodipodi:nodetypes="ccccc" />
    <text
       sodipodi:linespacing="125%"
       id="text3845"
       y="444.25034"
       x="197.9899"
       style="font-size:40px;font-style:normal;font-weight:normal;line-height:125%;letter-spacing:0px;word-spacing:0px;fill:#000000;fill-opacity:1;stroke:none;font-family:Sans"
       xml:space="preserve"><tspan
         y="444.25034"
         x="197.9899"
         id="tspan3847"
         sodipodi:role="line" /></text>
    <path
       inkscape:connector-curvature="0"
       id="path4238"
       style="fill:url(#linearGradient4226);fill-opacity:1;stroke:none;display:inline"
       d="M 121.53343,385.48403 324.82581,549.78246 592.16008,451.60395 388.32386,287.74157 z"
       sodipodi:nodetypes="ccccc" />
  </g>
  <g
     inkscape:groupmode="layer"
     id="layer8"
     inkscape:label="Box Top Edge Shadow"
     style="display:inline">
    <path
       mask="url(#mask4324)"
       inkscape:connector-curvature="0"
       id="path4284"
       d="m 388.53125,287.4375 -4.90625,1.8125 -247.09375,91.1875 -15.1875,5.59375 12.65625,10.125 186.09375,149.15625 4.0625,3.25 L 329,546.75 575.125,456.15625 590.25,450.59375 577.71875,440.4375 392.5625,290.71875 388.53125,287.4375 z m -3.4375,20.78125 168.5625,136.3125 L 327.5,527.78125 158.09375,392 l 227,-83.78125 z"
       style="font-size:medium;font-style:normal;font-variant:normal;font-weight:normal;font-stretch:normal;text-indent:0;text-align:start;text-decoration:none;line-height:normal;letter-spacing:normal;word-spacing:normal;text-transform:none;direction:ltr;block-progression:tb;writing-mode:lr-tb;text-anchor:start;baseline-shift:baseline;opacity:0.825;color:#000000;fill:url(#linearGradient4357);fill-opacity:1;fill-rule:nonzero;stroke:none;stroke-width:0.81599998;marker:none;visibility:visible;display:inline;overflow:visible;filter:url(#filter4435);enable-background:accumulate;font-family:Sans;-inkscape-font-specification:Sans" />
  </g>
  <g
     inkscape:groupmode="layer"
     id="layer5"
     inkscape:label="Box Top Edge"
     style="display:inline">
    <path
       style="font-size:medium;font-style:normal;font-variant:normal;font-weight:normal;font-stretch:normal;text-indent:0;text-align:start;text-decoration:none;line-height:normal;letter-spacing:normal;word-spacing:normal;text-transform:none;direction:ltr;block-progression:tb;writing-mode:lr-tb;text-anchor:start;baseline-shift:baseline;color:#000000;fill:#e9e9e9;fill-opacity:1;fill-rule:nonzero;stroke:none;stroke-width:0.81599998;marker:none;visibility:visible;display:inline;overflow:visible;enable-background:accumulate;font-family:Sans;-inkscape-font-specification:Sans"
       d="m 388.53125,287.4375 -4.90625,1.8125 -247.09375,91.1875 -15.1875,5.59375 12.65625,10.125 186.09375,149.15625 4.0625,3.25 L 329,546.75 575.125,456.15625 590.25,450.59375 577.71875,440.4375 392.5625,290.71875 388.53125,287.4375 z m -3.4375,20.78125 168.5625,136.3125 L 327.5,527.78125 158.09375,392 l 227,-83.78125 z"
       id="path4244"
       inkscape:connector-curvature="0"
       mask="url(#mask4264)" />
  </g>
  <g
     inkscape:groupmode="layer"
     id="layer2"
     inkscape:label="Cross"
     style="display:inline">
    <path
       inkscape:connector-curvature="0"
       id="rect3849"
       d="m 400.53113,484.95918 c 0,0 -1.04352,-0.83952 -1.04352,-0.83952 0,0 -1.04348,-0.83953 -1.04348,-0.83953 0,0 -48.52337,-39.03835 -48.52337,-39.03835 0,0 -66.49237,24.39066 -66.49237,24.39066 0,0 -40.01219,-32.19091 -40.01219,-32.19091 0,0 66.49235,-24.39066 66.49235,-24.39066 0,0 -50.57775,-40.69115 -50.57775,-40.69115 0,0 52.56836,-19.28311 52.56836,-19.28311 0,0 50.57775,40.69121 50.57775,40.69121 0,0 66.44949,-24.37494 66.44949,-24.37494 0,0 40.01221,32.19091 40.01221,32.19091 0,0 -1.37096,0.50288 -1.37096,0.50288 0,0 -1.37096,0.50291 -1.37096,0.50291 0,0 -63.70759,23.36915 -63.70759,23.36915 0,0 50.61037,40.71737 50.61037,40.71737 0,0 -52.56834,19.28308 -52.56834,19.28308 0,0 0,0 0,0"
       style="fill:#3fade4;fill-opacity:1;stroke:none" />
  </g>
  <g
     style="display:inline"
     inkscape:label="Cross Glow"
     id="g3916"
     inkscape:groupmode="layer">
    <path
       style="fill:#2884b3;fill-opacity:1;stroke:none;display:inline"
       d="m 375.5198,362.98706 c 0,0 -0.38366,-0.26113 -0.38366,-0.26113 0,0 -0.38365,-0.26113 -0.38365,-0.26113 0,0 -17.84016,-12.14283 -17.84016,-12.14283 0,0 -24.44667,7.58668 -24.44667,7.58668 0,0 -14.71093,-10.01294 -14.71093,-10.01294 0,0 24.44666,-7.58668 24.44666,-7.58668 0,0 -18.59548,-12.65693 -18.59548,-12.65693 0,0 19.32735,-5.99798 19.32735,-5.99798 0,0 18.59548,12.65694 18.59548,12.65694 0,0 24.4309,-7.58179 24.4309,-7.58179 0,0 14.71094,10.01294 14.71094,10.01294 0,0 -0.50405,0.15642 -0.50405,0.15642 0,0 -0.50405,0.15643 -0.50405,0.15643 0,0 -23.42281,7.26894 -23.42281,7.26894 0,0 18.60747,12.66509 18.60747,12.66509 0,0 -19.32734,5.99797 -19.32734,5.99797 0,0 0,0 0,0"
       id="path3952"
       inkscape:connector-curvature="0"
       mask="url(#mask4150)"
       transform="matrix(2.7198951,0,0,3.2149309,-620.84331,-682.01912)" />
  </g>
  <g
     style="opacity:0.49166667;display:inline"
     inkscape:label="Cross inline"
     id="g4170"
     inkscape:groupmode="layer">
    <path
       style="opacity:0.73275862000000003;fill:none;stroke:#ffffff;stroke-width:5.45133828999999981;stroke-miterlimit:4;stroke-opacity:1;stroke-dasharray:none"
       d="m 375.5198,362.98706 c 0,0 -0.38366,-0.26113 -0.38366,-0.26113 0,0 -0.38365,-0.26113 -0.38365,-0.26113 0,0 -17.84016,-12.14283 -17.84016,-12.14283 0,0 -24.44667,7.58668 -24.44667,7.58668 0,0 -14.71093,-10.01294 -14.71093,-10.01294 0,0 24.44666,-7.58668 24.44666,-7.58668 0,0 -18.59548,-12.65693 -18.59548,-12.65693 0,0 19.32735,-5.99798 19.32735,-5.99798 0,0 18.59548,12.65694 18.59548,12.65694 0,0 24.4309,-7.58179 24.4309,-7.58179 0,0 14.71094,10.01294 14.71094,10.01294 0,0 -0.50405,0.15642 -0.50405,0.15642 0,0 -0.50405,0.15643 -0.50405,0.15643 0,0 -23.42281,7.26894 -23.42281,7.26894 0,0 18.60747,12.66509 18.60747,12.66509 0,0 -19.32734,5.99797 -19.32734,5.99797 0,0 0,0 0,0"
       id="path4172"
       inkscape:connector-curvature="0"
       mask="url(#mask4277)"
       transform="matrix(2.7198951,0,0,3.2149309,-620.84331,-682.01912)" />
  </g>
  <g
     style="display:inline"
     inkscape:label="Cross outline - grey"
     id="g3912"
     inkscape:groupmode="layer">
    <path
       style="opacity:0.25862069;fill:none;stroke:url(#linearGradient4442);stroke-width:3.57042359999999981;stroke-miterlimit:4;stroke-opacity:1;stroke-dasharray:none;filter:url(#filter4208)"
       d="m 175.5198,362.98706 c 0,0 -0.38366,-0.26113 -0.38366,-0.26113 0,0 -0.38365,-0.26113 -0.38365,-0.26113 0,0 -17.84016,-12.14283 -17.84016,-12.14283 0,0 -24.44667,7.58668 -24.44667,7.58668 0,0 -14.71093,-10.01294 -14.71093,-10.01294 0,0 24.44666,-7.58668 24.44666,-7.58668 0,0 -18.59548,-12.65693 -18.59548,-12.65693 0,0 19.32735,-5.99798 19.32735,-5.99798 0,0 18.59548,12.65694 18.59548,12.65694 0,0 24.4309,-7.58179 24.4309,-7.58179 0,0 14.71094,10.01294 14.71094,10.01294 0,0 -0.50405,0.15642 -0.50405,0.15642 0,0 -0.50405,0.15643 -0.50405,0.15643 0,0 -23.42281,7.26894 -23.42281,7.26894 0,0 18.60747,12.66509 18.60747,12.66509 0,0 -19.32734,5.99797 -19.32734,5.99797 0,0 0,0 0,0"
       id="path3914"
       inkscape:connector-curvature="0"
       transform="matrix(2.7198951,0,0,3.2149309,-76.864308,-682.01912)"
       mask="url(#mask4450)" />
  </g>
  <g
     inkscape:groupmode="layer"
     id="g4154"
     inkscape:label="Cross outline - white"
     style="display:inline">
    <path
       inkscape:connector-curvature="0"
       id="path4156"
       d="m 400.53113,484.95918 c 0,0 -1.04352,-0.83952 -1.04352,-0.83952 0,0 -1.04348,-0.83953 -1.04348,-0.83953 0,0 -48.52337,-39.03835 -48.52337,-39.03835 0,0 -66.49237,24.39066 -66.49237,24.39066 0,0 -40.01219,-32.19091 -40.01219,-32.19091 0,0 66.49235,-24.39066 66.49235,-24.39066 0,0 -50.57775,-40.69115 -50.57775,-40.69115 0,0 52.56836,-19.28311 52.56836,-19.28311 0,0 50.57775,40.69121 50.57775,40.69121 0,0 66.44949,-24.37494 66.44949,-24.37494 0,0 40.01221,32.19091 40.01221,32.19091 0,0 -1.37096,0.50288 -1.37096,0.50288 0,0 -1.37096,0.50291 -1.37096,0.50291 0,0 -63.70759,23.36915 -63.70759,23.36915 0,0 50.61037,40.71737 50.61037,40.71737 0,0 -52.56834,19.28308 -52.56834,19.28308 0,0 0,0 0,0"
       style="fill:none;stroke:#ffffff;stroke-width:5.91414404;stroke-miterlimit:4;stroke-opacity:1;stroke-dasharray:none" />
  </g>
  <g
     inkscape:groupmode="layer"
     id="layer4"
     inkscape:label="Box Gloss"
     style="display:inline">
    <path
       style="fill:url(#linearGradient4223);fill-opacity:1;stroke:#ffffff;stroke-width:1;stroke-miterlimit:4;stroke-opacity:0.34513275;stroke-dasharray:none;display:inline;filter:url(#filter4044)"
       d="m 388.06775,285.7551 -267.9269,99.68328 c 0,0 168.4639,12.83763 234.52319,34.56051 125.01168,44.11284 236.89968,30.73868 236.89968,30.73868 0,0 -136.18368,-110.15039 -203.49597,-164.98247 z"
       id="path4211"
       inkscape:connector-curvature="0"
       sodipodi:nodetypes="ccccc" />
  </g>
</svg>
